# xmcd
#
# Track frame offsets: 
#        150
#        18159
#        35907
#        50366
#        66006
#        88397
#        105814
#        123427
#        141027
#        162644
#        184234
#        204179
#
# Disc length: 2980 seconds
#
# Revision: 2
# Processed by: cddbd v1.5.2PL0 Copyright (c) Steve Scherf et al.
# Submitted via: ExactAudioCopy v1.3
#
DISCID=a20ba20c
DTITLE=Ayo - Joyful
DYEAR=2006
DGENRE=Soul
TTITLE0=Down On My Knees
TTITLE1=Without You
TTITLE2=Letter By Letter
TTITLE3=How Many Times ?
TTITLE4=And It's Supposed To Be Love
TTITLE5=Watching You
TTITLE6=Only You
TTITLE7=Help Is Coming
TTITLE8=These Days
TTITLE9=Life Is Real
TTITLE10=What Is Love ?
TTITLE11=Neva Been
EXTD=
EXTT0=
EXTT1=
EXTT2=
EXTT3=
EXTT4=
EXTT5=
EXTT6=
EXTT7=
EXTT8=
EXTT9=
EXTT10=
EXTT11=
PLAYORDER=
